<svg xmlns="http://www.w3.org/2000/svg" aria-hidden="true" style="position:absolute;width:0;height:0;overflow:hidden"><defs><symbol id="icon-office-icon" viewBox="0 0 33 32"><path d="M3.944 2.03h3.833V.762a.757.757 0 0 1 .222-.529.755.755 0 0 1 .529-.225h15.461a.755.755 0 0 1 .529.225l.034.034c.118.134.19.31.191.503v1.26h3.767a1.207 1.207 0 0 1 1.204 1.202v8.749a1.208 1.208 0 0 1-1.204 1.202h-3.759v1.249h7.148a.64.64 0 0 1 .45.185.632.632 0 0 1 .188.45v16.495c0 .24-.194.434-.434.434H.431A.431.431 0 0 1 0 31.565V15.067a.638.638 0 0 1 .638-.635h7.148v-1.249H3.945a1.206 1.206 0 0 1-1.202-1.202V3.234c0-.664.538-1.203 1.202-1.204zm3.852 3.278a1.922 1.922 0 0 1 1.488.569 2.277 2.277 0 0 1 .53 1.613v-.007a2.505 2.505 0 0 1-.586 1.786l.003-.004a2.096 2.096 0 0 1-1.637.627H7.6a1.899 1.899 0 0 1-1.487-.576v-.001a2.331 2.331 0 0 1-.529-1.64v.007a2.458 2.458 0 0 1 .578-1.753l-.003.004a2.109 2.109 0 0 1 1.639-.616h-.006zm-.119 1.093a.72.72 0 0 0-.406.092l.004-.002c-.1.08-.17.193-.193.322v.003a2.809 2.809 0 0 0-.058.679V7.49a4.36 4.36 0 0 0 .064.884l-.004-.026c.02.163.095.305.206.41a.69.69 0 0 0 .388.118l.048-.002h-.002l.046.001a.72.72 0 0 0 .36-.096l-.004.002c.1-.08.171-.194.193-.325v-.003a2.86 2.86 0 0 0 .06-.59l-.001-.093v.005l.001-.103a4.63 4.63 0 0 0-.066-.777l.004.027a.677.677 0 0 0-.209-.41.686.686 0 0 0-.434-.114h.002zm4.177.04-.021.794h.466l.794-.021.077.095-.082.995-.879-.021h-.397v.09l.048 1.422h-1.371l.069-1.297-.069-3.116h2.946l.074.095-.087.995-1.093-.04zm3.511 0-.021.794h.466l.794-.021.077.095-.082.995-.882-.021h-.402v.09l.056 1.422H14l.069-1.297L14 5.382h2.944l.074.095-.074 1.003-1.091-.04zm3.462 1.93.053 1.432h-1.371l.066-1.297-.066-3.116h1.39l-.074 2.981zm3.145-3.055h.027c.386 0 .756.068 1.1.193l-.022-.007-.23 1.083-.09.056a1.611 1.611 0 0 0-.396-.151l-.011-.002a1.663 1.663 0 0 0-.431-.058h-.001a.7.7 0 0 0-.597.24l-.001.001a1.334 1.334 0 0 0-.185.799v-.005a1.725 1.725 0 0 0 .216.975l-.004-.009c.139.188.36.308.608.308l.042-.001h-.002a2.66 2.66 0 0 0 .442-.042l-.016.002c.155-.022.294-.059.426-.11l-.013.004.109.069-.109 1.077a3.04 3.04 0 0 1-.892.13l-.059-.001h.003q-1.099 0-1.655-.572c-.371-.381-.556-.94-.556-1.67a2.328 2.328 0 0 1 .6-1.715l-.002.002a2.244 2.244 0 0 1 1.707-.595h-.008zm4.861 3.396.074.095-.079.995h-3.124l.069-1.297-.069-3.116h3.163l.074.095-.087.995-1.085-.04h-.702v.619h.675l.709-.019.074.095-.082.995-.794-.021h-.622v.646h.651l1.13-.04zM8.643 2.03h15.24V.868H8.643V2.03zm15.241 11.153H8.644v17.951h15.24V13.183zm-4.472 12.382h2.48c.061 0 .111.05.111.111v2.475c0 .061-.05.111-.111.111h-2.48a.111.111 0 0 1-.111-.111v-2.473c0-.061.05-.111.111-.111zm-4.389 0h2.48c.061 0 .111.05.111.111v2.475c0 .061-.05.111-.111.111h-2.48a.111.111 0 0 1-.111-.111v-2.473c0-.061.05-.111.111-.111zm-4.389 0h2.491c.061 0 .111.05.111.111v2.478c0 .061-.05.111-.111.111h-2.491a.111.111 0 0 1-.111-.111v-2.475c0-.061.05-.111.111-.111zm14.113 5.559h6.917V15.299h-6.912v15.836zm-16.969 0V15.299H.869v15.836zm18.93-5.559h3.037c.033 0 .062.022.071.052v1.412c0 .021-.042.056-.074.056h-3.034c-.029 0-.074-.026-.074-.056v-1.403c0-.029.034-.053.074-.053zm-23.987 0h3.103c.04 0 .074.032.074.053v1.411c0 .021-.042.056-.074.056H2.721c-.032 0-.074-.026-.074-.056v-1.403c0-.029.034-.053.074-.053zm23.987-3.429H29.747a.07.07 0 0 1 .069.053V23.6c0 .021-.042.053-.074.053h-3.034c-.032 0-.074-.024-.074-.053v-1.403c0-.029.034-.053.074-.053zm0-3.441h3.037c.033 0 .062.022.071.052V20.162c0 .019-.042.053-.074.053h-3.034c-.029 0-.074-.024-.074-.053v-1.395c0-.026.034-.053.074-.053zM2.721 22.136h3.103c.04 0 .074.032.074.053V23.6c0 .021-.042.053-.074.053H2.721c-.032 0-.074-.024-.074-.053v-1.403c0-.029.034-.053.074-.053zm0-3.441h3.104c.034 0 .063.022.073.052V20.162c0 .021-.042.053-.074.053H2.721c-.032 0-.074-.024-.074-.053v-1.395c0-.026.034-.053.074-.053zm16.657 1.954h2.552a.08.08 0 0 1 .074.074v2.573a.084.084 0 0 1-.074.071h-2.552a.076.076 0 0 1-.074-.071v-2.563l-.001-.011c0-.041.033-.074.074-.074h.001zm-4.389 0h2.552a.08.08 0 0 1 .074.074v2.573a.084.084 0 0 1-.074.071h-2.552a.076.076 0 0 1-.074-.071v-2.563c0-.041.033-.074.074-.074zm-4.4 0h2.555a.08.08 0 0 1 .074.074v2.573a.087.087 0 0 1-.074.071h-2.555a.076.076 0 0 1-.071-.071v-2.563l-.001-.011c0-.04.032-.073.072-.074zm8.789-4.945h2.552c.04.001.073.034.074.074v2.552a.085.085 0 0 1-.074.074h-2.552a.077.077 0 0 1-.074-.074v-2.555c0-.039.032-.071.071-.071h.003zm-4.389 0h2.552c.04.001.073.034.074.074v2.552a.085.085 0 0 1-.074.074h-2.552a.077.077 0 0 1-.074-.074v-2.555c0-.039.032-.071.071-.071h.003zm-4.4 0h2.555c.04.001.073.034.074.074v2.552a.09.09 0 0 1-.074.074h-2.555a.077.077 0 0 1-.071-.074v-2.555c0-.039.032-.071.071-.071zM3.997 2.867h24.535c.2 0 .363.162.363.363v8.736a.366.366 0 0 1-.363.363H3.997a.363.363 0 0 1-.363-.363V3.23c0-.2.162-.363.363-.363z"/></symbol><symbol id="icon-profile" viewBox="0 0 32 32"><path d="M27 0H3C1.35 0 0 1.35 0 3v26c0 1.65 1.35 3 3 3h24c1.65 0 3-1.35 3-3V3c0-1.65-1.35-3-3-3zm-1 28H4V4h22v24zM8 18h14v2H8zm0 4h14v2H8zm2-13a3 3 0 1 1 6 0 3 3 0 0 1-6 0zm5 3h-4c-1.65 0-3 .9-3 2v2h10v-2c0-1.1-1.35-2-3-2z"/></symbol><symbol id="icon-wrench" viewBox="0 0 32 32"><path d="M31.342 25.559 16.95 13.223A9 9 0 0 0 6.387.387l5.2 5.2a2.005 2.005 0 0 1 0 2.828l-3.172 3.172a2.005 2.005 0 0 1-2.828 0l-5.2-5.2A9 9 0 0 0 13.223 16.95l12.336 14.392a1.828 1.828 0 0 0 2.716.104l3.172-3.172c.778-.778.731-2-.104-2.716z"/></symbol><symbol id="icon-happy" viewBox="0 0 32 32"><path d="M16 32c8.837 0 16-7.163 16-16S24.837 0 16 0 0 7.163 0 16s7.163 16 16 16zm0-29c7.18 0 13 5.82 13 13s-5.82 13-13 13S3 23.18 3 16 8.82 3 16 3zm0 15.711c3.623 0 7.07-.963 10-2.654-.455 5.576-4.785 9.942-10 9.942s-9.544-4.371-10-9.947a20.027 20.027 0 0 0 10 2.658zM8 11c0-1.657.895-3 2-3s2 1.343 2 3-.895 3-2 3-2-1.343-2-3zm12 0c0-1.657.895-3 2-3s2 1.343 2 3-.895 3-2 3-2-1.343-2-3z"/></symbol></defs></svg>