<svg xmlns="http://www.w3.org/2000/svg" aria-hidden="true" style="position:absolute;width:0;height:0;overflow:hidden">
    <defs>
        <symbol id="icon-logo" viewBox="0 0 54 32">
            <path
                d="M25.277 3.564c-.39.021-1.135.054-1.654.08-1.952.092-3.644.256-5.34.524-.343.054-.683.109-.754.117-.222.034-1.583.281-1.885.348-1.018.218-2.647.599-2.848.666-.092.029-.469.142-.838.247-.867.247-2.903.955-3.233 1.127a.601.601 0 0 1-.176.071c-.025 0-.184.063-.348.142-.168.08-.503.235-.746.339-1.286.574-2.97 1.571-3.812 2.258-.172.142-.356.289-.41.327-.226.155-1.139 1.047-1.424 1.395-.168.205-.339.415-.381.461-.18.214-.36.515-.57.963a8.613 8.613 0 0 1-.302.595c-.142.214-.515 1.391-.549 1.709l-.017.209.176-.159-.038.121c-.08.247-.088.39-.025.423.038.021.05.071.034.13-.021.088-.025.088-.08.021-.05-.067-.054-.042-.059.188 0 .147.017.297.042.339.021.042.063.218.088.385.054.36.276 1.089.431 1.42.059.126.109.26.109.297s.038.101.08.138c.084.075.147.214.188.41.017.067.088.151.201.222.101.063.256.209.348.323a11.68 11.68 0 0 0 1.541 1.592c.23.193.511.423.62.515s.256.205.327.251c.071.046.381.26.691.469.31.214.578.39.591.39.017 0 .08.034.138.08.121.084 1.114.628 1.432.783.813.394 2.32 1.06 2.555 1.122.147.042.553.193.637.239.042.021.201.075.356.121s.57.176.913.293c.348.117.875.281 1.173.36.302.08.699.188.884.243.394.117 2.392.557 3.158.695.289.054.666.121.838.155.172.029.503.084.733.117l.838.121c1.039.155 3.46.377 4.942.452 1.269.067 4.863.067 6.073 0 2.015-.113 4.029-.31 5.382-.532 2.031-.335 2.722-.461 3.33-.607.184-.046.628-.151.984-.235.984-.23 2.513-.666 3.225-.917l.942-.335c.368-.13.75-.272.846-.318.101-.042.193-.08.209-.08.013 0 .159-.059.322-.13.163-.075.381-.172.486-.218s.302-.134.44-.197c.138-.067.394-.184.565-.26.172-.08.54-.272.817-.431l.733-.41a18.78 18.78 0 0 0 1.269-.813 12.061 12.061 0 0 0 3.104-3.15c.565-.829.98-2.019 1.018-2.932.017-.314.008-.469-.017-.452-.042.025-.138-.553-.138-.808 0-.13.05-.075.109.117.05.151.05.142.054-.147.004-.163-.013-.306-.029-.314-.071-.029-.297-.486-.402-.8a2.18 2.18 0 0 0-.188-.44c-.042-.063-.13-.218-.193-.343s-.13-.239-.147-.251a1.02 1.02 0 0 1-.126-.209c-.138-.272-.39-.632-.683-.976-.327-.385-1.072-1.114-1.37-1.34-.126-.096-.335-.26-.461-.369-.431-.36-1.654-1.156-2.341-1.52-1.022-.545-2.576-1.282-2.697-1.282a.151.151 0 0 1-.092-.038c-.105-.101-2.408-.896-3.288-1.139-.335-.088-.758-.214-.942-.268a8.623 8.623 0 0 0-.691-.184l-.921-.214c-.31-.075-.641-.151-.733-.172-.327-.067-2.438-.448-2.869-.515-1.579-.243-4.39-.511-5.822-.549a58.775 58.775 0 0 1-1.508-.063 27.707 27.707 0 0 0-2.827.004zm3.854.876c2.069.059 3.535.188 5.759.503.151.021.528.075.838.121.565.08 1.294.214 2.157.398.255.054.536.113.628.13.268.042 2.279.549 2.555.645.138.046.486.151.775.235.771.226 1.935.628 2.367.817.046.021.218.088.377.151.854.327 3.187 1.479 3.271 1.613a.873.873 0 0 0 .218.138c.318.163.955.603 1.516 1.047.712.565 1.412 1.282 1.876 1.91.214.289.402.54.419.565.092.121.322.586.444.901.477 1.231.477 2.609.004 3.77a5.63 5.63 0 0 1-.54 1.022 4.747 4.747 0 0 0-.193.302c0 .067-.49.637-.921 1.068-.54.54-1.035.972-1.508 1.311-.394.285-1.072.737-1.102.737-.017 0-.159.084-.318.188s-.302.188-.314.188c-.013 0-.163.084-.331.188-.172.105-.322.188-.335.188s-.431.197-.93.44c-.494.243-.921.44-.942.44s-.226.075-.448.163c-.226.088-.616.243-.871.339-.251.096-.528.201-.607.235-.163.067-1.654.515-2.031.616-.046.013-.318.088-.607.176a38.2 38.2 0 0 1-2.492.586c-.159.029-.436.084-.607.126-.343.071-1.068.197-1.759.293-.243.038-.469.071-.503.084-.033.008-.243.038-.461.063s-.616.071-.88.105c-3.037.381-6.878.49-10.22.297-1.424-.084-2.174-.155-3.979-.36-1.043-.121-3.539-.557-4.419-.775-.138-.034-.461-.105-.712-.163a40.488 40.488 0 0 1-2.576-.716l-.67-.214c-.591-.18-1.872-.67-2.505-.955a8.285 8.285 0 0 0-.448-.193c-.042 0-1.721-.846-1.969-.993a24.463 24.463 0 0 1-1.663-1.097c-1.851-1.332-2.965-2.79-3.393-4.436-.23-.901-.163-2.023.18-2.877.071-.184.142-.356.159-.377.017-.025.084-.163.151-.31a3.89 3.89 0 0 1 .373-.624c.494-.674.691-.917 1.009-1.215.138-.134.306-.297.377-.369.184-.188 1.005-.85 1.319-1.064.775-.524.959-.637 1.571-.988.448-.255 2.115-1.072 2.417-1.181.13-.05.31-.126.398-.176a.755.755 0 0 1 .222-.084.193.193 0 0 0 .105-.034c.025-.021.163-.08.314-.134a5.67 5.67 0 0 0 .398-.147c.071-.029.222-.084.335-.126.117-.038.247-.088.293-.109s.18-.067.293-.101c.117-.029.57-.163 1.005-.293l1.131-.335c.427-.13 1.755-.448 2.325-.565.243-.046.662-.134.938-.188.612-.13 2.052-.36 2.58-.419.126-.013.578-.071 1.005-.126 1.051-.138 1.931-.226 2.534-.251.276-.013.578-.034.67-.05.503-.075 4.063-.109 5.948-.054z" />
            <path
                d="M24.712 5.617a48.504 48.504 0 0 0-6.387.561c-.39.063-.892.138-1.11.168-.218.034-.49.075-.607.101-.113.025-.436.092-.712.147-1.198.247-1.922.415-2.367.549-.105.029-.444.126-.754.209-.67.184-.834.235-1.445.444-.817.276-2.14.787-2.446.942a2.224 2.224 0 0 1-.226.101c-.046 0-.984.465-1.248.616-1.135.658-.997.574-1.42.863-1.575 1.076-2.53 2.136-3.112 3.464-.201.465-.364 1.231-.364 1.726 0 .632.239 1.525.607 2.253.092.18.096.226.075.796-.021.591-.021.616.088.871.109.26.39.679.452.679.013 0 .088.088.163.193s.264.289.415.41c.289.23.859.612.917.612.021 0 .059.029.088.059.025.034.147.096.264.134.121.038.285.117.364.172.08.05.172.096.201.096a.46.46 0 0 1 .168.063c.235.13.674.306 1.076.436.888.285 1.051.335 1.194.36.08.013.23.054.335.084.314.101.729.188.884.188.08 0 .243.038.364.08.117.046.218.075.218.063 0-.008.046.004.101.025.059.021.524.121 1.039.23.515.105 1.114.247 1.332.314.218.071.691.193 1.047.276.356.08.854.201 1.11.264.251.067.565.134.691.147.126.017.427.075.67.126.243.054.574.117.733.147.163.025.528.08.817.126.733.117 1.667.243 2.136.293.218.025.662.071.984.109 1.441.155 2.794.205 5.403.205 3.38 0 4.092-.042 7.183-.436 1.671-.214 1.68-.214 2.953-.465a53.245 53.245 0 0 0 3.476-.846c2.408-.704 4.142-1.424 6.061-2.534.084-.046.255-.159.377-.247.121-.084.343-.239.494-.339.595-.402 1.466-1.181 1.847-1.654.088-.113.235-.264.318-.335.088-.075.293-.268.461-.427.168-.163.322-.293.348-.293.054 0 .44-.373.473-.457.017-.038.05-.067.084-.067.05 0 .465-.431.603-.628.109-.155.339-.649.39-.838.063-.235.063-.834.004-1.102-.063-.272-.394-.892-.582-1.093-.188-.193-.888-.733-1.118-.859a5.498 5.498 0 0 1-.574-.352 1.707 1.707 0 0 0-.272-.155c-.021 0-.251-.214-.515-.473s-.67-.612-.901-.783a7.86 7.86 0 0 1-.44-.335c-.063-.075-.775-.536-1.361-.88-1.34-.783-2.894-1.453-4.733-2.048-.909-.289-2.262-.662-2.911-.796-.243-.05-.515-.109-.607-.13-.775-.18-1.562-.343-1.822-.377-.172-.021-.54-.075-.817-.126a6.824 6.824 0 0 0-.628-.084 3.3 3.3 0 0 1-.44-.059c-1.056-.205-3.874-.431-6.01-.486-.829-.021-1.6-.038-1.717-.034l-1.361.038zm4.398.456c.988.05 2.366.159 2.743.209.163.021.498.059.75.084.645.063 2.065.243 2.287.289.105.021.369.071.586.109 3.175.557 6.396 1.495 8.398 2.45.092.042.314.142.49.226.67.302 1.809.988 2.442 1.47.905.687.913.758.084.503a12.42 12.42 0 0 0-.712-.197c-.184-.046-.524-.138-.754-.205s-.557-.142-.725-.168c-.168-.025-.431-.071-.586-.105s-.373-.08-.49-.096a2.538 2.538 0 0 1-.331-.084c-.063-.025-.318-.054-.565-.067-.373-.017-.415-.013-.255.025.105.025.264.071.36.105.092.034.272.067.398.075.205.017.524.08 1.294.26.151.038.356.084.461.105s.293.067.419.105c.452.126.649.176.796.205.197.038 1.227.385 1.487.498.117.054.272.121.348.151.31.121.988 1.03 1.34 1.801.477 1.035.49 2.061.046 3.246-.176.469-.637 1.152-.976 1.441a5.141 5.141 0 0 1-.168.151c-.05.05-1.102.603-1.311.687-.126.05-.147.046-.268-.054-.184-.155-.373-.147-.515.021-.059.071-.109.163-.109.201 0 .155-.092.339-.168.339-.046 0-.209.05-.373.109l-.293.109-.172-.147c-.193-.163-.318-.201-.528-.155-.327.075-.448.243-.49.662-.029.256-.025.264.08.306.063.021.168.08.235.126.293.209.704.034.834-.36.075-.222.101-.239.444-.36.13-.042.272-.113.314-.151.067-.059.101-.063.218-.021.289.105.457.042.616-.243a.476.476 0 0 1 .243-.222c.201-.08.465-.126.465-.08 0 .096-.842.767-1.278 1.014-.138.075-.31.184-.381.239s-.142.096-.159.096c-.017 0-.138.071-.268.155-.281.18-1.043.565-1.604.808a9.191 9.191 0 0 0-.54.247c-.507.272-2.601 1.001-3.749 1.303-1.043.276-1.265.331-1.604.394a4.017 4.017 0 0 0-.377.084c-.017.008-.264.067-.553.126s-.695.142-.909.188c-.369.08-2.161.348-2.819.423l-.838.101c-.892.105-2.387.209-3.937.276l-1.466.067c-.264.017-1.273-.004-2.241-.042-2.266-.092-3.548-.18-4.607-.318a30.603 30.603 0 0 0-.649-.08c-1.382-.168-2.161-.285-2.555-.381l-.31-.075c-.067-.016-.13-.05-.138-.071-.008-.029.511-.038 1.453-.029.972.004 1.466-.004 1.466-.034 0-.021-.025-.042-.05-.042a35.945 35.945 0 0 1-1.374-.101 29.99 29.99 0 0 0-1.026-.063 35.302 35.302 0 0 1-1.466-.109 49.726 49.726 0 0 0-.796-.084c-.578-.059-1.29-.147-1.324-.172a4.579 4.579 0 0 0-.427-.126c-.49-.13-1.395-.427-2.501-.821-.511-.18-1.931-.792-2.367-1.022-.787-.406-1.814-1.047-2.383-1.483-.699-.532-1.797-1.671-2.006-2.082-.067-.126-.063-.138.034-.323.109-.205.515-.737.561-.737.017 0 .121-.096.235-.214.117-.117.398-.352.628-.528.23-.172.465-.348.524-.394s.205-.142.331-.218c.121-.075.31-.184.419-.247.105-.067.239-.138.297-.159.059-.025.444-.214.859-.419 1.546-.771 4.23-1.726 6.283-2.237.322-.08.67-.168.775-.197l.419-.101c.126-.03.335-.084.461-.117.126-.038.335-.084.461-.109.272-.05 1.127-.235 1.504-.322.142-.034.494-.096.775-.142.276-.042.666-.109.863-.147a73.676 73.676 0 0 0 1.319-.26c.293-.059.469-.084 1.424-.18a6.82 6.82 0 0 0 .733-.105 3.93 3.93 0 0 1 .607-.084 46.38 46.38 0 0 0 1.131-.109c.754-.084 2.224-.222 3.016-.289.591-.05 1.081-.121 1.131-.172.021-.021-.034-.038-.147-.042a14.096 14.096 0 0 0-1.445.046c-.23.021-.955.088-1.613.151a27.74 27.74 0 0 0-1.529.168c-.184.029-.524.075-.754.096-.612.059-1.361.159-1.864.251-.243.046-.683.113-.984.151-.297.038-1.043.163-1.654.281-.612.113-1.252.235-1.424.264-.436.084-.779.159-1.353.31-.272.071-.536.13-.586.13-.134 0-1.504.36-2.501.653-.264.08-.612.184-.775.23-.741.218-2.957 1.014-3.435 1.231-.959.436-1.65.779-2.078 1.026-1.37.796-2.023 1.34-2.714 2.253-.054.075-.126.134-.151.134-.142 0-.473-1.009-.511-1.566-.034-.498.092-1.345.26-1.721.029-.071.105-.235.163-.369s.18-.348.268-.482c.088-.13.23-.339.31-.461.172-.255.72-.834 1.148-1.21.457-.406.729-.599 1.897-1.357.105-.067.201-.121.222-.121s.117-.054.214-.121c.151-.101 1.122-.591 1.177-.591.008 0 .243-.105.515-.235.787-.373.838-.394.888-.394.029 0 .188-.054.352-.121.168-.067.385-.147.49-.18.105-.038.557-.188 1.005-.339s.926-.302 1.056-.339c.54-.155 1.889-.482 2.4-.586.302-.063.666-.138.817-.172a31.644 31.644 0 0 1 2.01-.356l1.026-.151c.23-.034.628-.08.88-.101.256-.021.725-.067 1.047-.101a39.185 39.185 0 0 1 2.429-.193c1.135-.046 4.699-.046 5.55 0zm20.578 6.731c.444.289 1.244 1.03 1.244 1.152 0 .021.046.101.105.176.188.251.314.637.314.976 0 .758-.356 1.437-1.164 2.212a5.353 5.353 0 0 1-.41.369c-.134.075-.134-.029 0-.318.159-.352.343-.984.398-1.37a4.347 4.347 0 0 0-.096-1.554 4.364 4.364 0 0 0-.511-1.261c-.126-.222-.226-.423-.226-.448 0-.08.163-.05.348.067zM3.719 18.605c.335.427 1.315 1.382 1.554 1.516a.673.673 0 0 1 .121.096c.109.105.578.423 1.014.683.243.142.545.323.67.398.239.142 1.734.901 1.776.901.013 0 .218.092.452.205.239.113.507.239.595.272.23.096.155.134-.13.071-.972-.214-1.654-.402-2.191-.595-1.118-.402-1.814-.695-2.098-.888a5.903 5.903 0 0 0-.331-.193 1.614 1.614 0 0 1-.272-.168 2.338 2.338 0 0 0-.272-.184c-.335-.188-.804-.733-1.035-1.194-.184-.377-.201-.431-.201-.72 0-.323.029-.461.101-.461.021 0 .13.117.247.26z" />
            <path
                d="M31.309 9.801c-1.52.042-2.442.101-2.501.159-.08.08.142.101.771.067.327-.017 2.09-.034 3.916-.034 1.822-.004 3.33-.017 3.342-.034.033-.034-.063-.059-.44-.113-.381-.059-3.627-.084-5.089-.046zM37.717 10.006c.214.034.624.084 1.592.197.302.034.658.08.8.101.138.025.398.042.57.042.176 0 .469.029.649.063s.448.063.599.063c.243-.004.264-.008.197-.063a1.207 1.207 0 0 0-.356-.096c-.54-.08-1.625-.218-2.019-.26-.498-.05-2.32-.092-2.031-.046zM23.832 12.624c-.394.201-1.248.49-1.897.637-.469.105-.465.096-.465.607-.004.645-.071.775-1.353 2.655-.155.23-.293.427-.31.44-.029.025-.285.406-.532.796a8.594 8.594 0 0 1-.582.821c-.113.138-.243.31-.293.377-.088.117-.096.117-.155.042-.054-.067-.063-.335-.054-1.814.008-.955-.004-1.747-.021-1.755-.063-.038-.021-.36.067-.486.096-.142.159-.184.318-.218.113-.025.247-.235.147-.235-.029 0-.075.029-.105.063s-.071.063-.092.063c-.025 0-.134.067-.239.147-.31.226-.306.188-.281 2.538.025 2.002.025 2.052-.059 2.216-.088.172-.142.209-.18.113a90.816 90.816 0 0 1-.025-2.354l-.008-2.304.398-.377c.222-.205.402-.398.402-.423 0-.084-.218-.092-1.809-.067-.632.013-.649.029-.377.469l.197.31.034 2.664c.017 1.462.021 2.723.008 2.798-.017.101-.067.163-.188.239-.256.163-.469.394-.44.482a.318.318 0 0 1-.029.188c-.101.226-.038.235 1.424.222l1.315-.013-.025-.138a.758.758 0 0 0-.096-.256 1.293 1.293 0 0 1-.18-.528c0-.151.134-.431.214-.452.042-.013.08-.05.08-.088 0-.096.197-.088.251.013.063.121.054.126-.101.101-.13-.021-.142-.013-.172.109-.017.071-.046.13-.067.13-.025 0-.038.042-.029.092.008.067.046.101.126.109.092.013.138-.021.243-.168.126-.18.256-.343.385-.494.096-.105.214-.339.184-.364-.038-.042-.193.038-.193.096 0 .088-.226.05-.243-.042-.021-.096.101-.352.243-.507.163-.18.511-.695.486-.72-.013-.013 0-.046.029-.071.029-.029.109-.117.18-.197.121-.142.268-.235.268-.172 0 .042-.117.214-.23.343-.134.147-.155.327-.059.431.08.084.08.084.188-.038.059-.067.155-.188.218-.268s.18-.23.268-.335c.084-.105.168-.239.18-.302a.902.902 0 0 1 .193-.289c.176-.188.235-.36.071-.209-.092.088-.159.08-.159-.021 0-.096-.067-.067-.193.088-.084.105-.13.134-.159.101-.034-.029-.025-.059.029-.096a.551.551 0 0 0 .121-.197.76.76 0 0 1 .176-.268c.126-.121.36-.452.36-.507a.54.54 0 0 1 .096-.138c.05-.063.138-.18.197-.255.059-.08.184-.23.281-.339.092-.109.184-.26.201-.331a.246.246 0 0 1 .138-.18c.126-.054.214-.151.218-.226 0-.088.184-.339.281-.385a.243.243 0 0 0 .117-.126c.013-.05.046-.088.067-.088.08 0 .419-.377.406-.452-.034-.159-.406.038-.477.251-.021.067-.142.113-.142.05 0-.096.335-.457.775-.834.49-.419.8-.783.662-.775a1.553 1.553 0 0 0-.222.101zm-1.847 2.291c-.038.021-.063.017-.075-.008-.008-.025.013-.063.042-.084.038-.021.063-.017.075.008.008.025-.013.063-.042.084zm-.791 1.039a.638.638 0 0 1-.105.13c-.029 0 .034-.142.101-.218.101-.117.105-.05.004.088zm-.335.482c0 .013-.017.034-.042.046-.021.013-.042.004-.042-.017 0-.025.021-.046.042-.046.025 0 .042.008.042.017zm-.252.351c0 .046-.092.134-.134.134-.021 0-.017-.038.008-.084.046-.084.126-.117.126-.05zm-.167.239c0 .034-.063.126-.134.205-.075.08-.184.205-.239.276s-.109.121-.117.109c-.013-.008.046-.109.13-.218s.151-.222.151-.251c0-.063.113-.184.172-.184.021 0 .038.029.038.063zm-.013.658c-.013.034-.025.021-.025-.025-.004-.046.008-.071.021-.054.013.013.017.05.004.08zm-.62.188c-.05.088-.142.226-.201.306-.063.08-.159.222-.214.314s-.168.251-.251.356c-.084.105-.226.302-.314.44s-.176.256-.193.264c-.021.008-.038.038-.038.067s-.046.109-.105.176a.671.671 0 0 0-.13.214c-.017.054-.046.096-.075.096-.025 0-.101.08-.168.172-.063.092-.126.159-.138.147-.038-.038.142-.369.339-.632.105-.138.193-.272.193-.302 0-.025.013-.054.034-.063.034-.013.209-.226.289-.352.029-.042.096-.142.147-.214.054-.075.188-.272.302-.431a2.69 2.69 0 0 1 .251-.327c.029-.017.113-.109.193-.209.172-.218.205-.226.08-.021zm-2.236 3.246c.088.084-.063.117-.536.117-.511 0-.653-.029-.595-.126.034-.054 1.076-.046 1.131.008z" />
            <path
                d="M24.163 12.884a.818.818 0 0 1-.176.13c-.172.088-.528.36-.528.406-.004.021-.05.08-.109.134s-.105.117-.105.142c0 .021.046.042.105.042s.105-.017.105-.038c0-.046.243-.297.289-.297.017 0 .063-.034.101-.075.042-.042.168-.121.281-.176.134-.063.205-.121.193-.155-.013-.029-.004-.054.017-.054.025 0 .042-.029.042-.063 0-.084-.142-.08-.214.004zM24.23 13.345c-.05.05-.054.08-.017.126s.067.046.168-.008c.134-.067.155-.121.054-.159s-.13-.034-.205.042zM23.51 14.073c-.046.067-.029.126.113.385.092.168.168.343.168.39 0 .092-.595 1.918-.712 2.178a4.133 4.133 0 0 0-.142.419 11.14 11.14 0 0 1-.214.628c-.075.205-.176.498-.226.649a6.286 6.286 0 0 1-.41 1.047 2.104 2.104 0 0 1-.503.699c-.172.168-.331.306-.36.306a.664.664 0 0 0-.188.121c-.126.109-.134.126-.075.184.088.088.084.113-.013.113-.142 0-.214.05-.214.147 0 .054.017.109.042.126.029.017 2.4.042 2.735.025.113-.004.088-.197-.071-.528-.302-.628-.335-.758-.264-1.039.05-.193.109-.088.105.184-.004.18.017.272.063.318.059.059.071.059.084.008.008-.034.105-.323.214-.645.113-.323.226-.725.26-.888.029-.168.084-.356.113-.419.084-.163.134-.54.075-.574-.059-.038-.247.163-.323.348-.034.08-.071.13-.084.117s.08-.335.209-.712c.13-.381.235-.72.235-.762 0-.117.13-.477.197-.528.088-.075.13.008.159.339.017.151.08.612.147 1.026.063.415.13.875.147 1.026.013.151.054.431.088.628s.096.628.138.963c.075.544.092.616.188.695.088.08.096.101.046.142-.088.071-.08.197.013.247.042.021.318.038.612.038.457-.004.536-.013.553-.071.013-.038.075-.176.142-.306.071-.13.126-.276.126-.323 0-.05.038-.159.084-.243a.735.735 0 0 0 .084-.26c0-.113.172-.503.222-.507.054 0 .029.281-.034.335-.034.029-.063.067-.063.088a.666.666 0 0 1-.05.151c-.092.214-.147.57-.101.674l.038.092.08-.113c.197-.289.427-.854.494-1.206.029-.138.075-.281.105-.314.071-.084.281-.641.431-1.152.071-.23.168-.532.218-.67a3.94 3.94 0 0 0 .159-.565c.038-.172.08-.323.096-.335s.088-.201.163-.419c.071-.218.176-.49.235-.603.101-.205.088-.272-.046-.276-.05 0-.44.645-.44.729 0 .071-.121.23-.126.159 0-.092.126-.519.184-.637.029-.059.08-.18.109-.272.101-.306.214-.482.331-.507.197-.05.591-.276.591-.339 0-.046-.025-.054-.092-.034-.054.013-.168.046-.26.067-.289.071-.612.302-.612.44 0 .034-.042.08-.096.105-.067.029-.138.151-.239.406a20.28 20.28 0 0 1-.26.653 1.875 1.875 0 0 0-.117.356.776.776 0 0 1-.084.239l-.088.163.029-.147c.038-.222.268-.913.381-1.148.05-.117.096-.235.096-.268 0-.059.117-.23.285-.41.05-.059.092-.117.092-.138 0-.042.222-.239.44-.385.096-.067.209-.168.247-.226.063-.096.063-.105-.017-.147-.101-.054-1.692-.05-1.835.004-.088.034-.101.059-.075.172.017.075.075.205.13.285.117.172.134.39.059.762-.05.247-.151.595-.205.725-.034.071-.18.498-.67 1.931-.155.452-.193.519-.31.519s-.151.117-.151.524c0 .276-.025.398-.088.398-.017 0-.046-.071-.063-.159a3.325 3.325 0 0 0-.084-.364 4.589 4.589 0 0 1-.084-.565 4.469 4.469 0 0 0-.063-.524c-.046-.188-.176-1.093-.268-1.822-.034-.264-.08-.574-.105-.683a2.734 2.734 0 0 1-.042-.427c0-.222.004-.222.201-.352.339-.218.385-.255.385-.335 0-.046-.025-.088-.059-.101s-.49-.025-1.014-.025c-.578-.004-.972-.021-.997-.046-.071-.071-.251-.046-.306.042zm.699 1.621c0 .071-.256.834-.364 1.089a.707.707 0 0 0-.054.209.533.533 0 0 1-.063.18c-.088.155-.08.013.017-.26.042-.121.13-.402.193-.62.121-.444.193-.628.239-.628.021 0 .034.013.034.029zm3.979.997c-.071.251-.147.297-.117.071.021-.151.113-.318.155-.276a.637.637 0 0 1-.038.205zm-.171.49a1.072 1.072 0 0 1-.101.243.734.734 0 0 0-.08.126c-.013.034-.017.017-.004-.042.008-.059.021-.155.021-.214 0-.105.155-.356.197-.318a.556.556 0 0 1-.034.205zm-.44-.063c-.05.226-.067.264-.101.243-.05-.034.046-.356.109-.356.008 0 .008.05-.008.113zm-4.117.922c-.029.159-.092.339-.147.41-.05.067-.13.201-.172.293-.142.297-.121.046.034-.41.226-.658.235-.679.289-.624.038.038.034.121-.004.331zm.146.745c-.084.084-.117.08-.071-.013a1.39 1.39 0 0 0 .071-.155c.029-.08.034-.08.046.013a.173.173 0 0 1-.046.155zm3.724.39c-.075.251-.172.297-.134.067.021-.134.147-.335.184-.297.004.008-.017.113-.05.23zm-4.335.159c-.029.101-.071.184-.088.184-.075 0-.054-.214.038-.419.059-.138.067-.142.084-.046a.925.925 0 0 1-.034.281zm3.857.029c-.021.029-.101.226-.172.444s-.155.444-.188.503c-.101.188-.071 0 .067-.398.067-.205.168-.503.218-.666l.092-.293.013.18c.008.101-.004.205-.029.23zm.331.256c0 .013-.017.034-.042.046-.021.013-.042.004-.042-.017 0-.025.021-.046.042-.046.025 0 .042.008.042.017zm-4.318.599c.004.054-.013.096-.038.096-.021 0-.042-.08-.038-.18 0-.134.008-.155.038-.092a.51.51 0 0 1 .038.176zm3.464.62a.617.617 0 0 0-.067.197c0 .08-.088.159-.176.159-.067 0-.059-.025.05-.176.071-.092.147-.251.176-.343.042-.142.054-.155.067-.075a.571.571 0 0 1-.05.239zm-3.108.272c.247.092.101.126-.57.126-.733 0-.871-.017-.871-.109 0-.046.126-.059.666-.059.369 0 .716.017.775.042zM30.346 14.115c-.222.029-.226.092-.046.44.109.205.142.31.126.39-.038.155-.18.599-.226.699-.021.046-.201.582-.398 1.194-.201.612-.39 1.164-.419 1.236a2.34 2.34 0 0 0-.121.335 70.915 70.915 0 0 1-.67 1.952c-.017.038-.168.163-.339.285-.318.222-.402.339-.314.444.042.05.042.075 0 .121-.088.109-.034.251.105.276.172.034 2.517.017 2.576-.021.05-.034.029-.134-.084-.377-.042-.092-.113-.243-.151-.335-.117-.256-.088-.716.05-.859.05-.05.059-.038.059.121 0 .096.021.214.046.26.042.084.046.084.126.013.042-.038.08-.101.08-.138s.046-.18.105-.314c.054-.138.113-.335.13-.436.029-.197.029-.197-.222-.105-.08.029-.071-.239.013-.398.034-.075.088-.134.117-.134.08 0 .184-.13.201-.251.008-.067.059-.126.138-.168.071-.034.188-.126.268-.201.235-.226.285-.239.36-.096.034.071.063.18.063.247s.054.457.121.871c.147.875.188 1.277.142 1.336-.054.067-.339.272-.381.272-.017 0-.08.046-.134.105-.084.088-.092.121-.054.184s.038.109 0 .209c-.088.235-.071.235 1.282.222 1.872-.017 1.969-.021 1.99-.084.008-.034-.134-.201-.314-.377-.398-.385-.486-.524-.578-.909l-.109-.461a4.83 4.83 0 0 1-.08-.544 5.776 5.776 0 0 0-.08-.544c-.025-.092-.046-.264-.046-.381s-.029-.297-.067-.398c-.071-.197-.193-1.122-.155-1.181a.45.45 0 0 0 .033-.138c.013-.121-.004-.109.209-.18.092-.034.214-.092.268-.134.054-.046.121-.08.151-.08.067 0 .109-.105.08-.188-.017-.034-.008-.063.013-.063s.109-.067.197-.147c.088-.08.176-.138.193-.126.029.017.394-.197.595-.352.059-.05.13-.088.159-.088a.47.47 0 0 0 .138-.05c.18-.101.532-.151.687-.096.151.05.452.017.528-.059.021-.021.029-.126.021-.239-.017-.197-.017-.201-.05-.071l-.033.134-.092-.134c-.096-.138-.13-.147-.423-.096-.155.029-.163.025-.088-.034a.292.292 0 0 1 .151-.067c.134 0 .276-.247.18-.306-.021-.013-.653-.008-1.416.008-1.24.021-1.382.034-1.395.096-.008.042.059.117.176.201.39.264.322.486-.352 1.164a9.978 9.978 0 0 1-.561.54c-.063.034-.486.41-1.009.892a3.16 3.16 0 0 0-.331.339c-.034.067-.147.121-.264.121-.084 0-.013-.26.13-.482.134-.214.197-.356.306-.704.034-.109.075-.197.096-.197s.046-.034.054-.075c.013-.038.013.038 0 .176-.025.235-.021.243.059.201.147-.08.314-.343.335-.532.021-.159.013-.18-.075-.201-.067-.021-.117-.004-.151.042-.088.117-.117.021-.054-.188a4.01 4.01 0 0 0 .075-.343c.021-.159.247-.419.364-.419.033 0 .063-.021.063-.046 0-.063.13-.159.214-.163.088 0 .138-.126.08-.184-.029-.029-.105-.008-.239.059-.113.059-.218.109-.243.121-.021.008.021-.059.096-.151.155-.197.163-.243.063-.285-.084-.029-1.78-.013-2.044.021zm1.78.524c-.029.034-.075.063-.101.063s-.008-.029.033-.063c.105-.08.134-.08.067 0zm-.382.448c-.046.168-.121.251-.121.134 0-.071.105-.268.147-.268.008 0-.004.059-.025.134zm-.288.867c-.054.188-.138.327-.159.26-.017-.05.046-.214.13-.331.059-.08.067-.063.029.071zm1.671.725c-.008.226.071.888.126 1.068.021.075.05.264.067.419.025.272.021.281-.042.172-.033-.063-.092-.314-.126-.561-.038-.247-.071-.461-.084-.477a2.96 2.96 0 0 1-.063-.327c-.033-.218-.033-.318 0-.381.075-.142.126-.101.121.088zm-1.944-.009c-.017.05-.038.08-.05.071-.013-.013-.008-.063.008-.113s.038-.08.05-.071c.013.013.008.063-.008.113zm-.079.31c-.017.08-.05.159-.075.176-.029.021-.038-.021-.013-.134a1.02 1.02 0 0 1 .05-.197c.042-.071.063.013.038.155zm.352 1.01c0 .038-.046.084-.101.105s-.138.08-.184.126c-.046.05-.109.084-.138.075-.063-.021.285-.369.369-.369.029 0 .054.029.054.063zm-1.006.841c0 .088-.105.352-.138.352-.021 0-.025-.034-.008-.075.013-.038.038-.121.05-.188.021-.096.096-.168.096-.088zm2.991.155c.008.084 0 .155-.021.155s-.038-.08-.038-.176c0-.205.029-.197.059.021zm-3.242.645c-.197.616-.264.771-.306.729-.05-.05-.004-.235.172-.674.071-.172.142-.352.159-.398.025-.075.034-.075.046-.013.013.042-.021.201-.071.356zm.469-.134c-.008.059-.034.105-.054.105-.059 0-.046-.159.017-.18.025-.013.054-.025.054-.025a.43.43 0 0 1-.017.101zm2.878.113c.004.021-.013.034-.038.034-.021 0-.042-.05-.038-.117 0-.101.004-.105.038-.029a.426.426 0 0 1 .038.113zm.062.377c.013.063.008.121-.013.134-.046.029-.088-.071-.088-.218 0-.13.063-.08.101.084zm.725 1.035c.042.063.038.084-.008.105-.063.021-.188-.075-.188-.147s.147-.038.197.042zm-.888.092c.021.025.017.059-.017.088-.071.075-1.361.075-1.432.004-.121-.121.105-.163.834-.147.314.008.591.034.616.054zm-3.791-.008.105.029-.092.05c-.209.117-1.403.034-1.219-.084.067-.038 1.06-.038 1.206.004z" />
            <path
                d="m25.906 14.505-.377.218-.013.209c-.008.113.008.293.034.398.029.105.084.415.13.691.042.276.105.624.138.775.038.151.067.385.067.524.004.138.034.327.067.419s.084.23.105.306c.025.08.054.13.067.121.029-.034-.054-.913-.151-1.537a30.902 30.902 0 0 1-.201-1.537c-.029-.314.08-.477.364-.557.222-.059.318-.134.272-.209-.046-.071-.113-.05-.503.18zM22.802 14.79c-.042.071.054.151.113.092.05-.05.017-.138-.046-.138-.021 0-.05.021-.067.046zM22.408 15.481c0 .034.021.05.042.038a.08.08 0 0 0 .042-.067c0-.021-.017-.038-.042-.038-.021 0-.042.029-.042.067zM22.262 15.665c-.013.021-.004.042.017.042.025 0 .046-.021.046-.042 0-.025-.008-.042-.017-.042-.013 0-.034.017-.046.042zM21.973 16.063c-.013.034-.004.063.017.063.025 0 .042-.029.042-.063S22.024 16 22.015 16c-.008 0-.025.029-.042.063zM21.801 16.31c-.084.088-.109.151-.067.151.025 0 .063-.038.088-.088.054-.101.042-.134-.021-.063zM33.885 16.461c0 .021.017.042.038.042.025 0 .054-.021.067-.042.013-.025-.004-.042-.038-.042-.038 0-.067.017-.067.042zM33.73 16.532c-.029.008-.054.067-.054.121 0 .084.021.101.121.101.151 0 .172-.034.126-.159-.033-.088-.088-.109-.193-.063zM34.01 16.586c0 .021.021.042.042.042a.042.042 0 0 0 .042-.042.04.04 0 0 0-.042-.042.042.042 0 0 0-.042.042zM21.365 16.821c0 .046.013.059.025.025.013-.029.008-.067-.004-.08-.013-.017-.025.008-.021.054zM33.956 19.058c-.042.155-.033.327.013.356.025.013.042.13.042.256 0 .18.013.226.067.226s.063-.034.042-.18a11.424 11.424 0 0 1-.042-.343 2.48 2.48 0 0 0-.059-.293l-.033-.126-.029.105zM31.099 19.058c-.013.021.004.042.038.042.038 0 .067-.021.067-.042 0-.025-.017-.042-.038-.042a.08.08 0 0 0-.067.042zM19.468 19.087c.029.013.067.008.08-.004.017-.013-.008-.025-.054-.021-.046 0-.059.013-.025.025zM19.334 19.263c-.013.017.004.067.034.109.05.071.054.071.075-.013.025-.088-.067-.168-.109-.096zM19.606 19.292c0 .046.013.059.025.025.013-.029.008-.067-.004-.08-.013-.017-.025.008-.021.054zM41.994 20.461a.736.736 0 0 0-.49.561c-.054.285-.126.373-.327.406-.084.013-.272.059-.423.101s-.356.088-.461.105a2.43 2.43 0 0 0-.377.084 13.01 13.01 0 0 1-.544.126 6.97 6.97 0 0 0-.461.105 5.949 5.949 0 0 1-.398.101c-.159.034-.398.084-.524.109s-.419.092-.649.147a7.9 7.9 0 0 1-.649.121c-.126.017-.322.046-.44.067-.113.025-.406.071-.649.105-.243.038-.544.092-.67.121-.339.088-.921.18-1.445.235-.251.029-.62.08-.817.113-1.407.243-5.353.603-7.321.666-.406.013-1.047.05-1.42.084-.457.038-1.273.059-2.542.059-1.026.004-1.868.017-1.868.038 0 .088.75.138 1.554.105a65.652 65.652 0 0 1 2.341-.038c2.107-.004 3.648-.096 6.304-.381.323-.034.859-.088 1.194-.121a80.796 80.796 0 0 0 1.99-.235c.402-.05.746-.109 1.093-.188.138-.034.335-.059.44-.059.159 0 .436-.042 1.416-.209.126-.021.285-.059.356-.08s.348-.08.612-.126c.712-.13.913-.172 1.215-.243l.544-.121c.741-.155.896-.188 1.382-.31.289-.071.712-.197.947-.276.461-.155.607-.172.687-.084.025.034.138.121.247.188.159.105.247.13.419.13.398 0 .67-.226.804-.662.042-.151.075-.18.23-.235.264-.088.603-.251.603-.285 0-.054-.188-.038-.339.025-.08.034-.226.071-.331.088-.18.025-.205.017-.398-.142a.955.955 0 0 0-.356-.197c-.08-.013-.184-.029-.23-.038s-.155.008-.247.042zM26.702 21.273c-.05.235.063.289.168.084.075-.142.075-.142-.05-.18-.075-.025-.092-.008-.117.096z" />
        </symbol>
        <symbol id="icon-tiktok" viewBox="0 0 32 32">
            <path
                d="M16.707.027C18.454 0 20.187.014 21.92 0c.107 2.04.84 4.12 2.333 5.56 1.493 1.48 3.6 2.16 5.653 2.387v5.373c-1.92-.067-3.853-.467-5.6-1.293-.76-.347-1.467-.787-2.16-1.24-.013 3.893.013 7.787-.027 11.667-.107 1.867-.72 3.72-1.8 5.253-1.747 2.56-4.773 4.227-7.88 4.28-1.907.107-3.813-.413-5.44-1.373-2.693-1.587-4.587-4.493-4.867-7.613a24.42 24.42 0 0 1-.013-1.987 10.004 10.004 0 0 1 3.44-6.613c2.213-1.92 5.307-2.84 8.2-2.293.027 1.973-.053 3.947-.053 5.92-1.32-.427-2.867-.307-4.027.493a4.631 4.631 0 0 0-1.813 2.333c-.28.68-.2 1.427-.187 2.147.32 2.187 2.427 4.027 4.667 3.827 1.493-.013 2.92-.88 3.693-2.147.253-.44.533-.893.547-1.413.133-2.387.08-4.76.093-7.147.013-5.373-.013-10.733.027-16.093z" />
        </symbol>
        <symbol id="icon-plus" viewBox="0 0 32 32">
            <path
                d="M28 18H18v10c0 1.1-.896 2-2 2s-2-.9-2-2V18H4c-1.104 0-2-.9-2-2s.896-2 2-2h10V4c0-1.1.896-2 2-2s2 .9 2 2v10h10c1.104 0 2 .9 2 2s-.896 2-2 2zm0-6h-8V4a4 4 0 1 0-8 0v8H4a4 4 0 1 0 0 8h8v8a4 4 0 1 0 8 0v-8h8a4 4 0 1 0 0-8z" />
        </symbol>
        <symbol id="icon-facebook" viewBox="0 0 32 32">
            <path
                d="M30.996 16.091C30.995 7.81 24.282 1.097 16 1.097S1.004 7.811 1.004 16.093c0 7.455 5.44 13.639 12.566 14.8l.086.012V20.427H9.848v-4.336h3.808v-3.302a5.293 5.293 0 0 1 5.684-5.834l-.018-.001c1.199.017 2.359.123 3.491.312l-.134-.019v3.69h-1.892a2.168 2.168 0 0 0-2.444 2.351l-.001-.009v2.812h4.159l-.665 4.336h-3.494v10.478c7.213-1.174 12.653-7.359 12.654-14.814z" />
        </symbol>
        <symbol id="icon-cross" viewBox="0 0 32 32">
            <path
                d="M9.326 9.342a1.333 1.333 0 0 0 0 1.886l4.78 4.78-4.78 4.78a1.333 1.333 0 1 0 1.886 1.886l4.78-4.78 4.78 4.78a1.333 1.333 0 1 0 1.886-1.886l-4.78-4.78 4.78-4.78a1.333 1.333 0 1 0-1.886-1.886l-4.78 4.78-4.78-4.78a1.333 1.333 0 0 0-1.886 0z" />
        </symbol>
        <symbol id="icon-home" viewBox="0 0 32 32">
            <path d="M32 18.451 16 6.031 0 18.451v-5.064L16 .967l16 12.42zM28 18v12h-8v-8h-8v8H4V18l12-9z" />
        </symbol>
        <symbol id="icon-phone" viewBox="0 0 32 32">
            <path
                d="M22 20c-2 2-2 4-4 4s-4-2-6-4-4-4-4-6 2-2 4-4-4-8-6-8-6 6-6 6c0 4 4.109 12.109 8 16s12 8 16 8c0 0 6-4 6-6s-6-8-8-6z" />
        </symbol>
        <symbol id="icon-envelop" viewBox="0 0 32 32">
            <path
                d="M29 4H3C1.35 4 0 5.35 0 7v20c0 1.65 1.35 3 3 3h26c1.65 0 3-1.35 3-3V7c0-1.65-1.35-3-3-3zM12.461 17.199 4 23.789V8.113l8.461 9.086zM5.512 8h20.976L16 15.875 5.512 8zm7.278 9.553L16 21l3.21-3.447L25.79 26H6.211l6.58-8.447zm6.749-.354L28 8.113v15.676l-8.461-6.59z" />
        </symbol>
        <symbol id="icon-burger" viewBox="0 0 32 32">
            <path
                d="M3.2 5.12h-.018a1.28 1.28 0 1 0 0 2.56h25.636a1.28 1.28 0 1 0 0-2.56H3.2zm0 9.6h-.018a1.28 1.28 0 1 0 0 2.56h25.636a1.28 1.28 0 1 0 0-2.56H3.2zm0 9.6h-.018a1.28 1.28 0 1 0 0 2.56h25.636a1.28 1.28 0 1 0 0-2.56H3.2z" />
        </symbol>
        <symbol id="icon-minus" viewBox="0 0 32 32">
            <path d="M0 13v6a1 1 0 0 0 1 1h30a1 1 0 0 0 1-1v-6a1 1 0 0 0-1-1H1a1 1 0 0 0-1 1z" />
        </symbol>
        <symbol id="icon-arrow-right" viewBox="0 0 32 32">
            <path
                d="m19.414 27.414 10-10a2 2 0 0 0 0-2.828l-10-10a2 2 0 1 0-2.828 2.828L23.172 14H4a2 2 0 1 0 0 4h19.172l-6.586 6.586c-.39.39-.586.902-.586 1.414s.195 1.024.586 1.414a2 2 0 0 0 2.828 0z" />
        </symbol>
        <symbol id="icon-instagram" viewBox="0 0 32 32">
            <path
                d="M16 2.881c4.275 0 4.781.019 6.462.094 1.563.069 2.406.331 2.969.55a4.952 4.952 0 0 1 1.837 1.194 5.015 5.015 0 0 1 1.2 1.838c.219.563.481 1.412.55 2.969.075 1.688.094 2.194.094 6.463s-.019 4.781-.094 6.463c-.069 1.563-.331 2.406-.55 2.969a4.94 4.94 0 0 1-1.194 1.837 5.02 5.02 0 0 1-1.837 1.2c-.563.219-1.413.481-2.969.55-1.688.075-2.194.094-6.463.094s-4.781-.019-6.463-.094c-1.563-.069-2.406-.331-2.969-.55a4.952 4.952 0 0 1-1.838-1.194 5.02 5.02 0 0 1-1.2-1.837c-.219-.563-.481-1.413-.55-2.969-.075-1.688-.094-2.194-.094-6.463s.019-4.781.094-6.463c.069-1.563.331-2.406.55-2.969a4.964 4.964 0 0 1 1.194-1.838 5.015 5.015 0 0 1 1.838-1.2c.563-.219 1.412-.481 2.969-.55 1.681-.075 2.188-.094 6.463-.094zM16 0c-4.344 0-4.887.019-6.594.094-1.7.075-2.869.35-3.881.744-1.056.412-1.95.956-2.837 1.85a7.833 7.833 0 0 0-1.85 2.831C.444 6.538.169 7.7.094 9.4.019 11.113 0 11.656 0 16s.019 4.887.094 6.594c.075 1.7.35 2.869.744 3.881.413 1.056.956 1.95 1.85 2.837a7.82 7.82 0 0 0 2.831 1.844c1.019.394 2.181.669 3.881.744 1.706.075 2.25.094 6.594.094s4.888-.019 6.594-.094c1.7-.075 2.869-.35 3.881-.744 1.05-.406 1.944-.956 2.831-1.844s1.438-1.781 1.844-2.831c.394-1.019.669-2.181.744-3.881.075-1.706.094-2.25.094-6.594s-.019-4.887-.094-6.594c-.075-1.7-.35-2.869-.744-3.881a7.506 7.506 0 0 0-1.831-2.844A7.82 7.82 0 0 0 26.482.843C25.463.449 24.301.174 22.601.099c-1.712-.081-2.256-.1-6.6-.1z" />
            <path
                d="M16 7.781c-4.537 0-8.219 3.681-8.219 8.219s3.681 8.219 8.219 8.219 8.219-3.681 8.219-8.219A8.221 8.221 0 0 0 16 7.781zm0 13.55a5.331 5.331 0 1 1 0-10.663 5.331 5.331 0 0 1 0 10.663zM26.462 7.456a1.919 1.919 0 1 1-3.838 0 1.919 1.919 0 0 1 3.838 0z" />
        </symbol>
        <symbol id="icon-medal" viewBox="0 0 32 32">
            <path
                d="M17.062 11.637 21.36 1l5.563 2.248-4.367 10.808a9.958 9.958 0 0 0-5.494-2.419zm-7.693 2.425L5 3.248 10.563 1l4.298 10.638a9.961 9.961 0 0 0-5.492 2.424zm6.597 16.516c4.971 0 9-4.029 9-9s-4.029-9-9-9-9 4.029-9 9 4.029 9 9 9zm0-6.308-3.5 2.308 1.5-4-3-2h3.5l1.5-4 1.5 4h3.5l-3 2 1.5 4-3.5-2.308z" />
        </symbol>
        <symbol id="icon-profile" viewBox="0 0 32 32">
            <path
                d="M27 0H3C1.35 0 0 1.35 0 3v26c0 1.65 1.35 3 3 3h24c1.65 0 3-1.35 3-3V3c0-1.65-1.35-3-3-3zm-1 28H4V4h22v24zM8 18h14v2H8zm0 4h14v2H8zm2-13a3 3 0 1 1 6 0 3 3 0 0 1-6 0zm5 3h-4c-1.65 0-3 .9-3 2v2h10v-2c0-1.1-1.35-2-3-2z" />
        </symbol>
        <symbol id="icon-wrench" viewBox="0 0 32 32">
            <path
                d="M31.342 25.559 16.95 13.223A9 9 0 0 0 6.387.387l5.2 5.2a2.005 2.005 0 0 1 0 2.828l-3.172 3.172a2.005 2.005 0 0 1-2.828 0l-5.2-5.2A9 9 0 0 0 13.223 16.95l12.336 14.392a1.828 1.828 0 0 0 2.716.104l3.172-3.172c.778-.778.731-2-.104-2.716z" />
        </symbol>
        <symbol id="icon-happy" viewBox="0 0 32 32">
            <path
                d="M16 32c8.837 0 16-7.163 16-16S24.837 0 16 0 0 7.163 0 16s7.163 16 16 16zm0-29c7.18 0 13 5.82 13 13s-5.82 13-13 13S3 23.18 3 16 8.82 3 16 3zm0 15.711c3.623 0 7.07-.963 10-2.654-.455 5.576-4.785 9.942-10 9.942s-9.544-4.371-10-9.947a20.027 20.027 0 0 0 10 2.658zM8 11c0-1.657.895-3 2-3s2 1.343 2 3-.895 3-2 3-2-1.343-2-3zm12 0c0-1.657.895-3 2-3s2 1.343 2 3-.895 3-2 3-2-1.343-2-3z" />
        </symbol>
        <symbol id="icon-office" viewBox="0 0 22 28">
            <path
                d="M6 20.5v1c0 .266-.234.5-.5.5h-1a.514.514 0 0 1-.5-.5v-1c0-.266.234-.5.5-.5h1c.266 0 .5.234.5.5zm0-4v1c0 .266-.234.5-.5.5h-1a.514.514 0 0 1-.5-.5v-1c0-.266.234-.5.5-.5h1c.266 0 .5.234.5.5zm4 0v1c0 .266-.234.5-.5.5h-1a.514.514 0 0 1-.5-.5v-1c0-.266.234-.5.5-.5h1c.266 0 .5.234.5.5zm-4-4v1c0 .266-.234.5-.5.5h-1a.514.514 0 0 1-.5-.5v-1c0-.266.234-.5.5-.5h1c.266 0 .5.234.5.5zm12 8v1c0 .266-.234.5-.5.5h-1a.514.514 0 0 1-.5-.5v-1c0-.266.234-.5.5-.5h1c.266 0 .5.234.5.5zm-4-4v1c0 .266-.234.5-.5.5h-1a.514.514 0 0 1-.5-.5v-1c0-.266.234-.5.5-.5h1c.266 0 .5.234.5.5zm-4-4v1c0 .266-.234.5-.5.5h-1a.514.514 0 0 1-.5-.5v-1c0-.266.234-.5.5-.5h1c.266 0 .5.234.5.5zm-4-4v1c0 .266-.234.5-.5.5h-1a.514.514 0 0 1-.5-.5v-1c0-.266.234-.5.5-.5h1c.266 0 .5.234.5.5zm12 8v1c0 .266-.234.5-.5.5h-1a.514.514 0 0 1-.5-.5v-1c0-.266.234-.5.5-.5h1c.266 0 .5.234.5.5zm-4-4v1c0 .266-.234.5-.5.5h-1a.514.514 0 0 1-.5-.5v-1c0-.266.234-.5.5-.5h1c.266 0 .5.234.5.5zm-4-4v1c0 .266-.234.5-.5.5h-1a.514.514 0 0 1-.5-.5v-1c0-.266.234-.5.5-.5h1c.266 0 .5.234.5.5zm-4-4v1c0 .266-.234.5-.5.5h-1a.514.514 0 0 1-.5-.5v-1c0-.266.234-.5.5-.5h1c.266 0 .5.234.5.5zm12 8v1c0 .266-.234.5-.5.5h-1a.514.514 0 0 1-.5-.5v-1c0-.266.234-.5.5-.5h1c.266 0 .5.234.5.5zm-4-4v1c0 .266-.234.5-.5.5h-1a.514.514 0 0 1-.5-.5v-1c0-.266.234-.5.5-.5h1c.266 0 .5.234.5.5zm-4-4v1c0 .266-.234.5-.5.5h-1a.514.514 0 0 1-.5-.5v-1c0-.266.234-.5.5-.5h1c.266 0 .5.234.5.5zm8 4v1c0 .266-.234.5-.5.5h-1a.514.514 0 0 1-.5-.5v-1c0-.266.234-.5.5-.5h1c.266 0 .5.234.5.5zm-4-4v1c0 .266-.234.5-.5.5h-1a.514.514 0 0 1-.5-.5v-1c0-.266.234-.5.5-.5h1c.266 0 .5.234.5.5zm4 0v1c0 .266-.234.5-.5.5h-1a.514.514 0 0 1-.5-.5v-1c0-.266.234-.5.5-.5h1c.266 0 .5.234.5.5zM14 26h6V2H2v24h6v-3.5c0-.266.234-.5.5-.5h5c.266 0 .5.234.5.5V26zm8-25v26c0 .547-.453 1-1 1H1c-.547 0-1-.453-1-1V1c0-.547.453-1 1-1h20c.547 0 1 .453 1 1z" />
        </symbol>

    </defs>
</svg>