<svg xmlns="http://www.w3.org/2000/svg" aria-hidden="true" style="position:absolute;width:0;height:0;overflow:hidden">
    <defs>
        <symbol id="icon-office" viewBox="0 0 22 28">
            <path
                d="M6 20.5v1c0 .266-.234.5-.5.5h-1a.514.514 0 0 1-.5-.5v-1c0-.266.234-.5.5-.5h1c.266 0 .5.234.5.5zm0-4v1c0 .266-.234.5-.5.5h-1a.514.514 0 0 1-.5-.5v-1c0-.266.234-.5.5-.5h1c.266 0 .5.234.5.5zm4 0v1c0 .266-.234.5-.5.5h-1a.514.514 0 0 1-.5-.5v-1c0-.266.234-.5.5-.5h1c.266 0 .5.234.5.5zm-4-4v1c0 .266-.234.5-.5.5h-1a.514.514 0 0 1-.5-.5v-1c0-.266.234-.5.5-.5h1c.266 0 .5.234.5.5zm12 8v1c0 .266-.234.5-.5.5h-1a.514.514 0 0 1-.5-.5v-1c0-.266.234-.5.5-.5h1c.266 0 .5.234.5.5zm-4-4v1c0 .266-.234.5-.5.5h-1a.514.514 0 0 1-.5-.5v-1c0-.266.234-.5.5-.5h1c.266 0 .5.234.5.5zm-4-4v1c0 .266-.234.5-.5.5h-1a.514.514 0 0 1-.5-.5v-1c0-.266.234-.5.5-.5h1c.266 0 .5.234.5.5zm-4-4v1c0 .266-.234.5-.5.5h-1a.514.514 0 0 1-.5-.5v-1c0-.266.234-.5.5-.5h1c.266 0 .5.234.5.5zm12 8v1c0 .266-.234.5-.5.5h-1a.514.514 0 0 1-.5-.5v-1c0-.266.234-.5.5-.5h1c.266 0 .5.234.5.5zm-4-4v1c0 .266-.234.5-.5.5h-1a.514.514 0 0 1-.5-.5v-1c0-.266.234-.5.5-.5h1c.266 0 .5.234.5.5zm-4-4v1c0 .266-.234.5-.5.5h-1a.514.514 0 0 1-.5-.5v-1c0-.266.234-.5.5-.5h1c.266 0 .5.234.5.5zm-4-4v1c0 .266-.234.5-.5.5h-1a.514.514 0 0 1-.5-.5v-1c0-.266.234-.5.5-.5h1c.266 0 .5.234.5.5zm12 8v1c0 .266-.234.5-.5.5h-1a.514.514 0 0 1-.5-.5v-1c0-.266.234-.5.5-.5h1c.266 0 .5.234.5.5zm-4-4v1c0 .266-.234.5-.5.5h-1a.514.514 0 0 1-.5-.5v-1c0-.266.234-.5.5-.5h1c.266 0 .5.234.5.5zm-4-4v1c0 .266-.234.5-.5.5h-1a.514.514 0 0 1-.5-.5v-1c0-.266.234-.5.5-.5h1c.266 0 .5.234.5.5zm8 4v1c0 .266-.234.5-.5.5h-1a.514.514 0 0 1-.5-.5v-1c0-.266.234-.5.5-.5h1c.266 0 .5.234.5.5zm-4-4v1c0 .266-.234.5-.5.5h-1a.514.514 0 0 1-.5-.5v-1c0-.266.234-.5.5-.5h1c.266 0 .5.234.5.5zm4 0v1c0 .266-.234.5-.5.5h-1a.514.514 0 0 1-.5-.5v-1c0-.266.234-.5.5-.5h1c.266 0 .5.234.5.5zM14 26h6V2H2v24h6v-3.5c0-.266.234-.5.5-.5h5c.266 0 .5.234.5.5V26zm8-25v26c0 .547-.453 1-1 1H1c-.547 0-1-.453-1-1V1c0-.547.453-1 1-1h20c.547 0 1 .453 1 1z" />
        </symbol>
    </defs>
</svg>